<svg xmlns="http://www.w3.org/2000/svg" width="170" height="108" viewBox="0 0 170 108">
    <g fill="none" fill-rule="evenodd">
        <rect width="143.219" height="39.589" x="4.658" y="19.795" fill="#EEE" fill-rule="nonzero" rx="19.795"/>
        <rect width="143.219" height="39.589" x="24.452" y="58.219" fill="#EEE" fill-rule="nonzero" rx="19.795"/>
        <circle cx="4.075" cy="69.281" r="4.075" fill="#EEE" fill-rule="nonzero"/>
        <circle cx="165.925" cy="45.993" r="4.075" fill="#EEE" fill-rule="nonzero"/>
        <circle cx="14.555" cy="100.719" r="6.404" fill="#EEE" fill-rule="nonzero"/>
        <circle cx="135.651" cy="6.404" r="6.404" fill="#EEE" fill-rule="nonzero"/>
        <path fill="#F37320" d="M130.03 50.083c-.246-18.529-15.356-34.08-33.983-34.08-11.867 0-23.01 6.4-29.162 15.626a17.008 17.008 0 0 0-9.442-2.846c-9.431 0-17.078 7.63-17.078 17.04 0 .326.03.643.05.967-.022.387-.05.78-.05 1.163-8.513 4.072-14.943 13.753-14.943 23.76 0 13.876 11.378 25.229 25.286 25.229h52.315c.295 0 .58-.034.871-.045.293.011.579.045.871.045h20.927c12.949 0 23.543-10.571 23.543-23.49 0-11.44-8.312-21.322-19.206-23.37z"/>
        <path fill="#000" fill-rule="nonzero" stroke="#000" d="M125.694 99.072h-20.927c-.222 0-.444-.013-.664-.03l-.284-.017-.134.017c-.22.017-.44.03-.664.03H50.708c-15.12 0-27.42-12.275-27.42-27.362 0-10.128 6.099-20.247 14.977-25.076-.017-.268-.034-.536-.034-.811 0-10.571 8.62-19.17 19.212-19.17 3.097 0 6.114.737 8.833 2.147 6.955-9.255 18.182-14.927 29.77-14.927 19.094 0 34.931 15.323 36.058 34.493 11.096 2.91 19.266 13.395 19.266 25.087 0 14.126-11.519 25.619-25.676 25.619zm-21.875-4.303l.577.024c.124.008.247.02.371.02h20.927c11.802 0 21.406-9.584 21.406-21.36 0-10.258-7.51-19.404-17.466-21.277l-1.716-.321-.023-1.74c-.231-17.637-14.519-31.982-31.848-31.982-10.689 0-21.437 5.76-27.384 14.676l-1.183 1.774-1.778-1.18a14.874 14.874 0 0 0-8.26-2.49c-8.239 0-14.942 6.69-14.942 14.91 0 .179.013.355.026.532l.025.43-.019.369c-.015.268-.032.537-.032.799v1.342l-1.213.577c-7.956 3.806-13.73 12.99-13.73 21.838 0 12.74 10.385 23.102 23.15 23.102h52.316c.126 0 .248-.01.372-.02l.424-.023z"/>
        <path fill="#91BAE1" stroke="#000" d="M130.03 50.083s-5.412-.799-10.68 0"/>
        <path fill="#000" stroke="#000" d="M119.347 52.213a2.13 2.13 0 0 1-.318-4.237c5.523-.84 11.08-.038 11.314-.002a2.129 2.129 0 0 1 1.797 2.418c-.17 1.165-1.27 1.957-2.42 1.797-.052-.006-5.177-.735-10.05-.002a2.075 2.075 0 0 1-.323.026zM74.52 47.953a2.132 2.132 0 0 1-2.134-2.13c0-8.22-6.703-14.91-14.943-14.91-8.24 0-14.943 6.69-14.943 14.91 0 1.178-.956 2.13-2.135 2.13a2.132 2.132 0 0 1-2.134-2.13c0-10.571 8.62-19.17 19.212-19.17s19.212 8.599 19.212 19.17c0 1.178-.956 2.13-2.134 2.13z"/>
        <g fill="#000" stroke="#000">
            <path stroke-width="2" d="M78.508 85.702c2.548-2.088 6.187-3.287 9.985-3.287 3.798 0 7.438 1.199 9.986 3.287a1.01 1.01 0 0 0 1.433-.157 1.049 1.049 0 0 0-.155-1.457c-2.903-2.38-7.01-3.746-11.264-3.746s-8.36 1.366-11.264 3.746a1.049 1.049 0 0 0-.154 1.457c.353.446.995.516 1.433.157z"/>
            <path d="M83.32 57.57a1.76 1.76 0 0 0-2.49 0l-3.98 3.98-3.98-3.98a1.76 1.76 0 1 0-2.491 2.491l3.98 3.98-3.98 3.98a1.76 1.76 0 1 0 2.49 2.49l3.98-3.98 3.98 3.98c.344.344.795.516 1.246.516a1.76 1.76 0 0 0 1.245-3.006l-3.98-3.98 3.98-3.98a1.76 1.76 0 0 0 0-2.49zM94.831 70.512a1.761 1.761 0 0 0 2.49 0l3.98-3.98 3.98 3.98c.344.343.795.515 1.245.515a1.761 1.761 0 0 0 1.246-3.006l-3.98-3.98 3.98-3.98a1.761 1.761 0 0 0-2.49-2.49l-3.98 3.98-3.98-3.98a1.76 1.76 0 1 0-2.491 2.49l3.98 3.98-3.98 3.98a1.761 1.761 0 0 0 0 2.491z"/>
        </g>
    </g>
</svg>
