<svg xmlns="http://www.w3.org/2000/svg" width="200" height="133" viewBox="0 0 200 133">
    <g fill="none" fill-rule="evenodd">
        <rect width="168.493" height="46.575" x="5.479" y="26.027" fill="#EEE" fill-rule="nonzero" rx="23.288"/>
        <rect width="168.493" height="46.575" x="28.767" y="71.233" fill="#EEE" fill-rule="nonzero" rx="23.288"/>
        <circle cx="4.795" cy="84.247" r="4.795" fill="#EEE" fill-rule="nonzero"/>
        <circle cx="195.205" cy="56.849" r="4.795" fill="#EEE" fill-rule="nonzero"/>
        <circle cx="25.342" cy="125.342" r="7.534" fill="#EEE" fill-rule="nonzero"/>
        <circle cx="178.767" cy="13.014" r="7.534" fill="#EEE" fill-rule="nonzero"/>
        <g transform="translate(49.315)">
            <path fill="#F37320" d="M93.124 14.111c3.053 2.02 4.804 5.273 4.804 8.926v31.438c-7.479-1.16-13.22-7.623-13.22-15.4l-.2-26.413c2.942-.773 6.01-.275 8.616 1.45zM7.782 35.616l.468-1.381a13.488 13.488 0 0 1 7.473-8.063 13.547 13.547 0 0 1 11.01.172c7.296 3.388 16.116 1.556 21.449-4.455l.597-.673a2.397 2.397 0 0 0-.208-3.39 2.415 2.415 0 0 0-3.401.207l-.597.673c-3.93 4.43-10.43 5.779-15.806 3.282a18.384 18.384 0 0 0-14.94-.233c-.436.186-.859.393-1.275.61 2.8-7.444 9.579-12.687 20.243-15.62C43.385 3.83 54.64 4.206 65.347 7.83l14.342 4.854.188 12.413c-6.386 8.658-15.7 14.52-26.314 16.534-10.868 2.064-21.956-.12-31.22-6.148-4.527-2.945-10.234-2.819-14.561.133z"/>
            <path fill="#FFD19F" d="M4.819 76.328c0-3.862 2.592-7.13 6.133-8.17v13.02c0 1.126.041 2.244.12 3.356-3.601-1.001-6.253-4.3-6.253-8.206zM85.896 110.595c-7.757 7.735-18.071 11.996-29.042 11.997h-.005c-10.972 0-21.294-4.327-29.06-12.182-7.75-7.839-12.018-18.22-12.018-29.232V38.172a8.342 8.342 0 0 1 3.938 1.335c10.314 6.71 22.656 9.142 34.755 6.844 9.82-1.864 18.643-6.685 25.424-13.795v6.52c0 10.43 7.896 19.05 18.04 20.242v22.315c0 10.94-4.273 21.227-12.032 28.962zM102.653 84.526c.06-.96.093-1.924.093-2.893V68.157c3.541 1.04 6.134 4.309 6.134 8.171 0 3.897-2.638 7.188-6.227 8.198z"/>
            <path fill="#000" fill-rule="nonzero" d="M113.699 76.328c0-6.525-4.732-11.967-10.953-13.102V23.037a15.47 15.47 0 0 0-6.958-12.93A15.562 15.562 0 0 0 82.021 8.4L66.895 3.28C55.27-.654 43.036-1.057 31.513 2.113 16.427 6.263 7.778 15.04 6.443 27.515a18.22 18.22 0 0 0-2.758 5.182L2.51 36.159c-.63 1.86.065 3.813 1.728 4.862s3.731.836 5.146-.528a8.405 8.405 0 0 1 1.567-1.188v23.922C4.732 64.362 0 69.803 0 76.329c0 6.787 5.117 12.4 11.706 13.217 1.654 9.11 6.002 17.513 12.65 24.237 8.68 8.78 20.22 13.614 32.493 13.614h.005c12.258 0 23.782-4.761 32.45-13.403 6.77-6.751 11.165-15.24 12.765-24.458 6.552-.85 11.63-6.447 11.63-13.208zM93.124 14.111c3.053 2.02 4.804 5.273 4.804 8.926v31.438c-7.479-1.16-13.22-7.623-13.22-15.4l-.2-26.413c2.942-.773 6.01-.275 8.616 1.45zM7.782 35.616l.468-1.381a13.488 13.488 0 0 1 7.473-8.063 13.547 13.547 0 0 1 11.01.172c7.296 3.388 16.116 1.556 21.449-4.455l.597-.673a2.397 2.397 0 0 0-.208-3.39 2.415 2.415 0 0 0-3.401.207l-.597.673c-3.93 4.43-10.43 5.779-15.806 3.282a18.384 18.384 0 0 0-14.94-.233c-.436.186-.859.393-1.275.61 2.8-7.444 9.579-12.687 20.243-15.62C43.385 3.83 54.64 4.206 65.347 7.83l14.342 4.854.188 12.413c-6.386 8.658-15.7 14.52-26.314 16.534-10.868 2.064-21.956-.12-31.22-6.148-4.527-2.945-10.234-2.819-14.561.133zM4.819 76.328c0-3.862 2.592-7.13 6.133-8.17v13.02c0 1.126.041 2.244.12 3.356-3.601-1.001-6.253-4.3-6.253-8.206zm81.077 34.267c-7.757 7.735-18.071 11.996-29.042 11.997h-.005c-10.972 0-21.294-4.327-29.06-12.182-7.75-7.839-12.018-18.22-12.018-29.232V38.172a8.342 8.342 0 0 1 3.938 1.335c10.314 6.71 22.656 9.142 34.755 6.844 9.82-1.864 18.643-6.685 25.424-13.795v6.52c0 10.43 7.896 19.05 18.04 20.242v22.315c0 10.94-4.273 21.227-12.032 28.962zm16.757-26.07c.06-.958.093-1.923.093-2.892V68.157c3.541 1.04 6.134 4.309 6.134 8.171 0 3.897-2.638 7.188-6.227 8.198z"/>
            <ellipse cx="31.648" cy="78.308" fill="#000" rx="4.689" ry="4.675"/>
            <ellipse cx="82.051" cy="78.308" fill="#000" rx="4.689" ry="4.675"/>
            <path fill="#000" d="M53.086 104.526a6.097 6.097 0 0 1 4.35-1.81c1.643 0 3.187.642 4.35 1.81a2.25 2.25 0 0 0 3.193 0 2.276 2.276 0 0 0 0-3.21 10.572 10.572 0 0 0-7.544-3.138c-2.85 0-5.528 1.115-7.543 3.139a2.276 2.276 0 0 0 0 3.209 2.251 2.251 0 0 0 3.194 0z"/>
        </g>
    </g>
</svg>
