<?xml version="1.0" encoding="utf-8"?>
<!-- Generator: Adobe Illustrator 17.0.0, SVG Export Plug-In . SVG Version: 6.00 Build 0)  -->
<!DOCTYPE svg PUBLIC "-//W3C//DTD SVG 1.1//EN" "http://www.w3.org/Graphics/SVG/1.1/DTD/svg11.dtd">
<svg version="1.1" id="Layer_1" xmlns="http://www.w3.org/2000/svg" xmlns:xlink="http://www.w3.org/1999/xlink" x="0px" y="0px"
	 width="32px" height="32px" viewBox="0 0 32 32" enable-background="new 0 0 32 32" xml:space="preserve">
<g>
	<g>
		<g>
			
				<path fill="none" stroke="#FFFFFF" stroke-width="0.7402" stroke-linecap="round" stroke-linejoin="round" stroke-miterlimit="10" d="
				M23.343,24.057C23.339,24.057,23.339,24.061,23.343,24.057c-0.179,0.193-0.363,0.368-0.561,0.561
				c-0.299,0.285-0.602,0.584-0.887,0.919c-0.464,0.496-1.011,0.731-1.728,0.731c-0.069,0-0.142,0-0.211-0.005
				c-1.365-0.087-2.633-0.62-3.584-1.075c-2.601-1.259-4.884-3.046-6.782-5.312c-1.567-1.888-2.614-3.634-3.308-5.509
				C5.856,13.223,5.7,12.331,5.768,11.49c0.046-0.537,0.252-0.983,0.634-1.364l1.567-1.567c0.225-0.211,0.464-0.326,0.698-0.326
				c0.29,0,0.524,0.175,0.671,0.322c0.005,0.005,0.009,0.009,0.014,0.014c0.28,0.262,0.547,0.533,0.827,0.822
				c0.142,0.147,0.29,0.294,0.436,0.446l1.255,1.254c0.487,0.487,0.487,0.937,0,1.425c-0.133,0.133-0.262,0.267-0.395,0.395
				c-0.386,0.395-0.754,0.763-1.154,1.121c-0.009,0.009-0.018,0.014-0.023,0.023c-0.395,0.395-0.322,0.781-0.239,1.043
				c0.005,0.014,0.009,0.027,0.014,0.041c0.326,0.79,0.786,1.535,1.484,2.422l0.005,0.005c1.268,1.562,2.605,2.78,4.08,3.713
				c0.189,0.12,0.382,0.216,0.565,0.308c0.166,0.083,0.322,0.161,0.455,0.244c0.018,0.009,0.036,0.023,0.055,0.032
				c0.156,0.078,0.303,0.115,0.455,0.115c0.382,0,0.62-0.239,0.699-0.317l1.571-1.572c0.156-0.156,0.405-0.345,0.694-0.345
				c0.285,0,0.519,0.179,0.662,0.336c0.004,0.005,0.004,0.005,0.009,0.009l2.532,2.532C23.812,23.087,23.812,23.57,23.343,24.057z"
				/>
			
				<path fill="none" stroke="#FFFFFF" stroke-width="0.7402" stroke-linecap="round" stroke-linejoin="round" stroke-miterlimit="10" d="
				M21.79,16.232c0.34-0.055,0.565-0.377,0.51-0.717c-0.248-1.457-0.937-2.784-1.989-3.837c-1.052-1.052-2.38-1.741-3.837-1.989
				c-0.293-0.047-0.57,0.114-0.678,0.374"/>
			
				<path fill="none" stroke="#FFFFFF" stroke-width="0.7402" stroke-linecap="round" stroke-linejoin="round" stroke-miterlimit="10" d="
				M25.732,16.044c0.335-0.05,0.565-0.372,0.505-0.707c-0.409-2.399-1.539-4.581-3.276-6.318c-1.737-1.737-3.92-2.867-6.318-3.276
				c-0.297-0.053-0.579,0.121-0.682,0.394"/>
		</g>
	</g>
</g>
</svg>
