<svg xmlns="http://www.w3.org/2000/svg" width="170" height="112" viewBox="0 0 170 112">
    <g fill="none" fill-rule="evenodd">
        <rect width="134.903" height="37.224" x="6.581" y="25.29" fill="#EEE" fill-rule="nonzero" rx="18.612"/>
        <rect width="134.903" height="37.224" x="25.226" y="61.419" fill="#EEE" fill-rule="nonzero" rx="18.612"/>
        <ellipse cx="3.839" cy="75.105" fill="#EEE" fill-rule="nonzero" rx="3.839" ry="3.832"/>
        <ellipse cx="166.161" cy="49.924" fill="#EEE" fill-rule="nonzero" rx="3.839" ry="3.832"/>
        <ellipse cx="47.71" cy="14.89" fill="#EEE" fill-rule="nonzero" rx="6.032" ry="6.022"/>
        <ellipse cx="117.903" cy="14.89" fill="#EEE" fill-rule="nonzero" rx="6.032" ry="6.022"/>
        <g transform="translate(44.98 .075)">
            <ellipse cx="47.603" cy="64.229" fill="#F37320" rx="45.249" ry="45.169"/>
            <g fill="#878791">
                <path d="M41.273 19.061v-7.293h12.663v7.293M75.123 27.822l5.166-5.157 8.954 8.938-5.166 5.157"/>
            </g>
            <g fill="#9B9B9B">
                <path d="M34.285 2.18H60.92v9.588H34.285zM91.82 34.174l-14.107-14.08 3.637-3.63a4.47 4.47 0 0 1 6.312 0l7.794 7.78a4.45 4.45 0 0 1 0 6.3l-3.637 3.63z"/>
            </g>
            <ellipse cx="47.603" cy="64.229" fill="#FFF" rx="35.637" ry="35.573"/>
            <g fill="#F5B955" transform="translate(42.353 48.597)">
                <ellipse cx="5.251" cy="15.632" rx="5.24" ry="5.23"/>
                <path d="M2.301 11.31L20.753.157l-11.17 18.42"/>
            </g>
            <path fill="#000" d="M71.077 100.278c-6.983 4.54-15.1 6.94-23.473 6.94-23.746 0-43.066-19.284-43.066-42.988 0-8.608 2.539-16.913 7.342-24.018a2.177 2.177 0 0 0-.588-3.025c-1-.674-2.356-.41-3.031.587C2.969 45.602.171 54.75.171 64.23c0 12.647 4.934 24.537 13.893 33.48 8.959 8.943 20.87 13.868 33.54 13.868 9.221 0 18.162-2.645 25.856-7.647a2.177 2.177 0 0 0 .638-3.016 2.185 2.185 0 0 0-3.02-.637zM78.345 94.337l-.073.073a2.177 2.177 0 0 0 1.55 3.715c.561 0 1.123-.215 1.55-.645l.09-.091c.844-.86.831-2.24-.03-3.082a2.186 2.186 0 0 0-3.087.03z"/>
            <path fill="#000" fill-rule="nonzero" d="M90.275 35.715c.427.426.985.639 1.544.639a2.18 2.18 0 0 0 1.544-.639l3.636-3.63a6.635 6.635 0 0 0 0-9.383l-7.793-7.78a6.61 6.61 0 0 0-4.7-1.943c-1.776 0-3.445.69-4.7 1.943l-3.637 3.63a2.178 2.178 0 0 0 0 3.082l1.033 1.03-2.616 2.612a46.93 46.93 0 0 0-18.467-7.636v-3.692h4.803a2.181 2.181 0 0 0 2.183-2.18V2.18C63.105.976 62.128 0 60.922 0H34.287a2.181 2.181 0 0 0-2.183 2.18v9.588c0 1.204.977 2.18 2.183 2.18h4.803v3.697a47.195 47.195 0 0 0-17.566 7.03 2.177 2.177 0 0 0-.62 3.02 2.186 2.186 0 0 0 3.024.62c7.03-4.628 15.218-7.074 23.677-7.074 23.746 0 43.066 19.284 43.066 42.989a42.822 42.822 0 0 1-6.467 22.668 2.177 2.177 0 0 0 1.852 3.33c.73 0 1.443-.364 1.856-1.028a47.17 47.17 0 0 0 7.125-24.97c0-9.766-2.944-19.079-8.41-26.933l2.616-2.612 1.032 1.03zm-7.382-17.71a2.267 2.267 0 0 1 1.613-.667c.609 0 1.181.237 1.612.667l7.794 7.78a2.276 2.276 0 0 1 0 3.219l-2.093 2.088-1.03-1.027-.002-.003-8.954-8.938-.002-.001-1.03-1.03 2.092-2.089zM36.47 4.358h22.269v5.23H36.47V4.36zm6.986 12.703v-3.114h8.296v3.115a47.81 47.81 0 0 0-8.296 0zM83.95 33.806a48.417 48.417 0 0 0-2.805-3.056 48.323 48.323 0 0 0-3.062-2.8l2.207-2.203 5.866 5.856-2.206 2.203z"/>
            <path fill="#000" d="M47.604 42.494a2.181 2.181 0 0 0 2.183-2.18V35.52c0-1.203-.977-2.18-2.183-2.18a2.181 2.181 0 0 0-2.183 2.18v4.795c0 1.203.978 2.179 2.183 2.179zM67.94 46.108c.575 0 1.138-.233 1.544-.639.406-.405.64-.967.64-1.54 0-.573-.234-1.136-.64-1.541a2.201 2.201 0 0 0-1.543-.638 2.2 2.2 0 0 0-1.544.638c-.406.405-.64.968-.64 1.54 0 .576.234 1.136.64 1.541a2.2 2.2 0 0 0 1.544.639zM69.379 64.23c0 1.203.977 2.179 2.183 2.179h4.803a2.181 2.181 0 0 0 2.183-2.18c0-1.203-.977-2.179-2.183-2.179h-4.803a2.181 2.181 0 0 0-2.183 2.18zM67.94 86.71c.575 0 1.138-.232 1.544-.64a2.19 2.19 0 0 0 .64-1.54c0-.573-.234-1.133-.64-1.54a2.201 2.201 0 0 0-1.543-.64 2.2 2.2 0 0 0-1.544.64c-.406.404-.64.967-.64 1.54a2.185 2.185 0 0 0 2.184 2.18zM47.604 85.965a2.181 2.181 0 0 0-2.183 2.18v4.794c0 1.204.978 2.18 2.183 2.18a2.181 2.181 0 0 0 2.183-2.18v-4.794c0-1.204-.977-2.18-2.183-2.18zM27.267 82.35a2.2 2.2 0 0 0-1.543.639c-.406.405-.64.967-.64 1.54 0 .576.234 1.136.64 1.541.406.408.97.639 1.543.639.575 0 1.138-.231 1.544-.639a2.19 2.19 0 0 0 .64-1.54c0-.574-.234-1.136-.64-1.541a2.202 2.202 0 0 0-1.544-.639zM18.844 66.409h4.803a2.181 2.181 0 0 0 2.183-2.18c0-1.203-.978-2.179-2.183-2.179h-4.803a2.181 2.181 0 0 0-2.184 2.18c0 1.203.978 2.179 2.184 2.179zM27.267 46.108c.575 0 1.138-.233 1.544-.639.406-.405.64-.967.64-1.54 0-.573-.234-1.136-.64-1.541a2.202 2.202 0 0 0-1.544-.638 2.2 2.2 0 0 0-1.543.638c-.406.405-.64.968-.64 1.54 0 .574.234 1.136.64 1.541a2.2 2.2 0 0 0 1.543.639z"/>
            <path fill="#000" fill-rule="nonzero" d="M47.604 71.64a7.42 7.42 0 0 0 6.028-3.093c.16-.2.311-.462.434-.677l10.908-17.986c.52-.858.386-1.96-.324-2.67a2.186 2.186 0 0 0-2.674-.323l-18.022 10.89c-.195.111-.468.271-.652.417a7.4 7.4 0 0 0-3.12 6.032c0 4.085 3.33 7.41 7.422 7.41zm-3.056-7.41c0-1.044.528-1.966 1.33-2.516l.297-.18a3.057 3.057 0 0 1 4.486 2.695c0 .516-.13 1.001-.357 1.427l-.18.297a3.056 3.056 0 0 1-5.576-1.723zm9.168-4.2a7.472 7.472 0 0 0-1.905-1.9l4.828-2.919-2.923 4.82z"/>
            <path fill="#000" fill-rule="nonzero" d="M47.604 101.982c20.855 0 37.82-16.935 37.82-37.752 0-20.817-16.966-37.753-37.82-37.753S9.784 43.413 9.784 64.23s16.966 37.752 37.82 37.752zm0-71.146c18.447 0 33.454 14.98 33.454 33.394 0 18.413-15.007 33.393-33.454 33.393-18.446 0-33.453-14.98-33.453-33.393 0-18.414 15.007-33.394 33.453-33.394z"/>
            <path fill="#000" d="M15.742 34.337c.574 0 1.138-.233 1.544-.638.406-.405.64-.968.64-1.54 0-.574-.234-1.136-.64-1.541a2.202 2.202 0 0 0-1.544-.639 2.2 2.2 0 0 0-1.543.639c-.406.405-.64.967-.64 1.54 0 .576.234 1.136.64 1.541a2.2 2.2 0 0 0 1.543.638z"/>
        </g>
        <path fill="#000" d="M42.938 85.045H30.695c-1.126 0-2.04.781-2.04 1.746 0 .964.914 1.745 2.04 1.745h12.243c1.128 0 2.041-.781 2.041-1.745 0-.965-.913-1.746-2.04-1.746zM37.108 50.125H24.865c-1.126 0-2.04.782-2.04 1.747 0 .964.914 1.745 2.04 1.745h12.243c1.127 0 2.04-.781 2.04-1.745 0-.965-.913-1.747-2.04-1.747zM38.274 73.405H26.03c-1.126 0-2.04.782-2.04 1.746s.914 1.746 2.04 1.746h12.243c1.127 0 2.04-.782 2.04-1.746s-.913-1.746-2.04-1.746zM41.772 38.486H29.53c-1.126 0-2.04.781-2.04 1.746 0 .964.914 1.746 2.04 1.746h12.243c1.127 0 2.041-.782 2.041-1.746 0-.965-.914-1.746-2.04-1.746zM33.61 61.765H21.367c-1.127 0-2.041.782-2.041 1.746s.914 1.746 2.04 1.746H33.61c1.127 0 2.04-.782 2.04-1.746s-.913-1.746-2.04-1.746z"/>
    </g>
</svg>
