<svg xmlns="http://www.w3.org/2000/svg" width="170" height="99" viewBox="0 0 170 99">
    <g fill="none" fill-rule="evenodd">
        <rect width="127.918" height="37.185" x="10.933" y="19.478" fill="#EEE" fill-rule="nonzero" rx="18.593"/>
        <rect width="143.662" height="37.185" x="25.934" y="56.685" fill="#EEE" fill-rule="nonzero" rx="18.593"/>
        <ellipse cx="3.827" cy="65.96" fill="#EEE" fill-rule="nonzero" rx="3.827" ry="3.828"/>
        <ellipse cx="155.798" cy="44.086" fill="#EEE" fill-rule="nonzero" rx="3.827" ry="3.828"/>
        <ellipse cx="16.946" cy="90.021" fill="#EEE" fill-rule="nonzero" rx="6.013" ry="6.015"/>
        <ellipse cx="136.118" cy="11.276" fill="#EEE" fill-rule="nonzero" rx="6.013" ry="6.015"/>
        <path fill="#606162" d="M138.922 73.318l-36.64-64.2c-2.738-4.795-7.856-8.024-13.723-8.024-5.867 0-10.985 3.23-13.723 8.024l-36.64 64.2a16.085 16.085 0 0 0-2.117 7.997c0 8.849 7.092 16.023 15.84 16.023h73.28c8.748 0 15.839-7.174 15.839-16.023 0-2.914-.773-5.643-2.116-7.997z"/>
        <path fill="#FFB751" d="M132.403 78.537l-36.567-63.87c-1.284-2.242-3.638-3.658-6.184-3.73l31.096 78.745h5.26c4.068 0 7.377-3.34 7.377-7.439 0-1.322-.331-2.567-.982-3.706z"/>
        <path fill="#FFD764" d="M124.897 78.537a8.394 8.394 0 0 1 .835 3.706c0 4.1-2.81 7.439-6.264 7.439H52.143c-4.035 0-7.317-3.339-7.317-7.439a7.42 7.42 0 0 1 .974-3.706l36.272-63.866c1.309-2.304 3.738-3.734 6.343-3.734.069 0 .14.002.209.004 2.149.085 4.137 1.498 5.22 3.73l31.053 63.866z"/>
        <path fill="#606162" d="M88.559 69.996v9.843c3.02 0 5.466-2.203 5.466-4.922s-2.447-4.921-5.466-4.921z"/>
        <path fill="#606162" d="M88.559 69.996c.603 0 1.093 2.202 1.093 4.921 0 2.719-.49 4.922-1.093 4.922-3.02 0-5.467-2.203-5.467-4.922s2.447-4.921 5.467-4.921zM88.559 24.061v39.372c3.02 0 5.466-2.383 5.466-5.32V29.382c0-2.94-2.447-5.321-5.466-5.321z"/>
        <path fill="#606162" d="M88.559 24.061c.603 0 1.093 2.381 1.093 5.32v28.732c0 2.937-.49 5.32-1.093 5.32-3.02 0-5.467-2.383-5.467-5.32V29.382c0-2.94 2.447-5.321 5.467-5.321z"/>
        <path fill="#000" fill-rule="nonzero" d="M139.824 72.279L103.516 8.735C100.436 3.347 94.706 0 88.559 0S76.68 3.347 73.602 8.736L37.294 72.279a17.58 17.58 0 0 0-2.308 8.708c0 9.619 7.745 17.444 17.265 17.444h72.616c9.52 0 17.264-7.825 17.264-17.444 0-3.055-.797-6.067-2.307-8.708zm-14.957 22.98H52.25c-7.79 0-14.126-6.402-14.126-14.272 0-2.5.653-4.962 1.887-7.123L76.32 10.321c2.52-4.41 7.21-7.15 12.239-7.15 5.028 0 9.718 2.74 12.238 7.15l36.308 63.544a14.38 14.38 0 0 1 1.887 7.122c0 7.87-6.336 14.273-14.125 14.273z"/>
        <path fill="#000" d="M96.843 13.284c-1.595-2.797-4.56-4.535-7.738-4.535-3.177 0-6.142 1.738-7.736 4.535L64.72 42.491a1.607 1.607 0 0 0 .577 2.18c.753.44 1.717.179 2.152-.584L84.097 14.88c1.034-1.813 2.953-2.939 5.008-2.939 2.056 0 3.975 1.126 5.009 2.94l36.445 63.94c.51.894.768 1.874.768 2.912 0 3.226-2.591 5.851-5.776 5.851H52.66c-3.186 0-5.777-2.625-5.777-5.851 0-1.038.258-2.018.768-2.912l16.647-29.207a1.607 1.607 0 0 0-.577-2.18 1.564 1.564 0 0 0-2.152.584L44.923 77.225a8.99 8.99 0 0 0-1.19 4.508c0 4.986 4.004 9.043 8.927 9.043h72.89c4.923 0 8.928-4.057 8.928-9.043 0-1.606-.4-3.122-1.19-4.508l-36.445-63.94z"/>
        <path fill="#000" fill-rule="nonzero" d="M88.559 65.62c3.617 0 6.56-3.108 6.56-6.93V29.899c0-3.822-2.943-6.932-6.56-6.932-3.617 0-6.56 3.11-6.56 6.932v28.79c0 3.823 2.943 6.932 6.56 6.932zM85.026 29.9c0-2.058 1.585-3.733 3.533-3.733 1.947 0 3.532 1.675 3.532 3.733v28.79c0 2.058-1.585 3.733-3.532 3.733-1.948 0-3.533-1.675-3.533-3.732V29.899zM88.559 82.026a6.568 6.568 0 0 0 6.56-6.562 6.568 6.568 0 0 0-6.56-6.562 6.568 6.568 0 0 0-6.56 6.562 6.568 6.568 0 0 0 6.56 6.562zm0-10.095a3.537 3.537 0 0 1 3.532 3.533 3.537 3.537 0 0 1-3.532 3.533 3.537 3.537 0 0 1-3.533-3.533 3.537 3.537 0 0 1 3.533-3.533z"/>
    </g>
</svg>
