<svg width="20px" height="15px" viewBox="0 0 20 15" version="1.1" xmlns="http://www.w3.org/2000/svg" xmlns:xlink="http://www.w3.org/1999/xlink">
    <g id="MVP-SALIDA-Wireframes" stroke="none" stroke-width="1" fill="none" fill-rule="evenodd">
        <g id="MOVIL_FLUJO_1" transform="translate(-20.000000, -836.000000)" fill="#B2B2B2">
            <g id="CLAVE" transform="translate(9.000000, 809.000000)">
                <g id="black-envelope" transform="translate(11.000000, 27.000000)">
                    <path d="M1.57357143,0.950714286 L8.74071429,6.62785714 C9.06571429,6.885 9.51357143,6.99928571 9.94857143,6.97785714 C10.3828571,6.99928571 10.8307143,6.88571429 11.1557143,6.62785714 L18.3228571,0.950714286 C18.8971429,0.498571429 18.7671429,0.127857143 18.0385714,0.127857143 L9.94928571,0.127857143 L1.86,0.127857143 C1.13071429,0.127857143 1.00071429,0.498571429 1.57357143,0.950714286 Z" id="Path"></path>
                    <path d="M18.8407143,2.44857143 L11.0085714,8.395 C10.7157143,8.615 10.3321429,8.72214286 9.95,8.71714286 C9.56714286,8.72214286 9.18357143,8.61428571 8.89071429,8.395 L1.05714286,2.44857143 C0.475714286,2.00785714 0,2.24428571 0,2.97357143 L0,12.73 C0,13.4592857 0.597142857,14.0564286 1.32642857,14.0564286 L9.94857143,14.0564286 L18.5714286,14.0564286 C19.3007143,14.0564286 19.8978571,13.4592857 19.8978571,12.73 L19.8978571,2.97357143 C19.8978571,2.24428571 19.4221429,2.00785714 18.8407143,2.44857143 Z" id="Path"></path>
                </g>
            </g>
        </g>
    </g>
</svg>