<?xml version="1.0" encoding="UTF-8"?>
<svg width="24px" height="24px" viewBox="0 0 24 24" version="1.1" xmlns="http://www.w3.org/2000/svg" xmlns:xlink="http://www.w3.org/1999/xlink">
    <!-- Generator: sketchtool 55.2 (78181) - https://sketchapp.com -->
    <title>4C62E09F-4A69-4C3C-9DAA-857956A021AC</title>
    <desc>Created with sketchtool.</desc>
    <g id="MVP-SALIDA-Wireframes" stroke="none" stroke-width="1" fill="none" fill-rule="evenodd">
        <g id="wizard-3_PlazoFijo" transform="translate(-242.000000, -417.000000)" fill="#B2B2B2" fill-rule="nonzero">
            <g id="Group-2" transform="translate(215.000000, 299.000000)">
                <g id="round-location_city-24px" transform="translate(24.000000, 115.000000)">
                    <path d="M18.75,13.75 L18.75,7.2875 C18.75,6.625 18.4875,5.9875 18.0125,5.525 L15.875,3.3875 C15.3875,2.9 14.6,2.9 14.1125,3.3875 L11.9875,5.5125 C11.5125,5.9875 11.25,6.625 11.25,7.2875 L11.25,8.75 L6.25,8.75 C4.875,8.75 3.75,9.875 3.75,11.25 L3.75,23.75 C3.75,25.125 4.875,26.25 6.25,26.25 L23.75,26.25 C25.125,26.25 26.25,25.125 26.25,23.75 L26.25,16.25 C26.25,14.875 25.125,13.75 23.75,13.75 L18.75,13.75 Z M8.75,23.75 L6.25,23.75 L6.25,21.25 L8.75,21.25 L8.75,23.75 Z M8.75,18.75 L6.25,18.75 L6.25,16.25 L8.75,16.25 L8.75,18.75 Z M8.75,13.75 L6.25,13.75 L6.25,11.25 L8.75,11.25 L8.75,13.75 Z M16.25,23.75 L13.75,23.75 L13.75,21.25 L16.25,21.25 L16.25,23.75 Z M16.25,18.75 L13.75,18.75 L13.75,16.25 L16.25,16.25 L16.25,18.75 Z M16.25,13.75 L13.75,13.75 L13.75,11.25 L16.25,11.25 L16.25,13.75 Z M16.25,8.75 L13.75,8.75 L13.75,6.25 L16.25,6.25 L16.25,8.75 Z M23.75,23.75 L21.25,23.75 L21.25,21.25 L23.75,21.25 L23.75,23.75 Z M23.75,18.75 L21.25,18.75 L21.25,16.25 L23.75,16.25 L23.75,18.75 Z" id="Shape"></path>
                </g>
            </g>
        </g>
    </g>
</svg>