<svg xmlns="http://www.w3.org/2000/svg" width="26" height="27" viewBox="0 0 26 27">
    <g fill="#000" fill-rule="nonzero">
        <path d="M23.715 3.547h-.762v-.762A2.288 2.288 0 0 0 20.668.5a2.288 2.288 0 0 0-2.285 2.285v.762h-3.047v-.762A2.288 2.288 0 0 0 13.05.5a2.288 2.288 0 0 0-2.285 2.285v.762H7.617v-.762A2.288 2.288 0 0 0 5.332.5a2.288 2.288 0 0 0-2.285 2.285v.762h-.762A2.288 2.288 0 0 0 0 5.832v18.383A2.288 2.288 0 0 0 2.285 26.5h21.43A2.288 2.288 0 0 0 26 24.215V5.832a2.288 2.288 0 0 0-2.285-2.285zm-3.809-.762a.763.763 0 0 1 1.524 0v3.047a.763.763 0 0 1-1.524 0V2.785zm-7.617 0a.763.763 0 0 1 1.524 0v3.047a.763.763 0 0 1-1.524 0V2.785zm-7.719 0a.763.763 0 0 1 1.524 0v3.047a.763.763 0 0 1-1.524 0V2.785zm19.907 21.43c0 .42-.342.762-.762.762H2.285a.763.763 0 0 1-.762-.762v-12.95h22.954v12.95zm0-14.473H1.523v-3.91c0-.42.342-.762.762-.762h.762v.762a2.288 2.288 0 0 0 2.285 2.285 2.288 2.288 0 0 0 2.285-2.285V5.07h3.149v.762a2.288 2.288 0 0 0 2.285 2.285 2.288 2.288 0 0 0 2.285-2.285V5.07h3.047v.762a2.288 2.288 0 0 0 2.285 2.285 2.288 2.288 0 0 0 2.285-2.285V5.07h.762c.42 0 .762.342.762.762v3.91z"/>
        <path d="M22.191 12.79H3.81a.762.762 0 0 0-.762.76v9.141c0 .421.34.762.762.762H22.19c.421 0 .762-.34.762-.762v-9.14a.762.762 0 0 0-.762-.762zM7.617 21.93H4.57v-3.047h3.047v3.047zm0-4.57H4.57v-3.047h3.047v3.046zm4.672 4.57H9.141v-3.047h3.148v3.047zm0-4.57H9.141v-3.047h3.148v3.046zm4.57 4.57h-3.047v-3.047h3.047v3.047zm0-4.57h-3.047v-3.047h3.047v3.046zm4.57 4.57h-3.046v-3.047h3.047v3.047zm0-4.57h-3.046v-3.047h3.047v3.046z"/>
    </g>
</svg>
