<?xml version="1.0" encoding="UTF-8"?>
<svg width="12px" height="20px" viewBox="0 0 12 20" version="1.1" xmlns="http://www.w3.org/2000/svg" xmlns:xlink="http://www.w3.org/1999/xlink">
    <!-- Generator: sketchtool 55.2 (78181) - https://sketchapp.com -->
    <title>8416C731-8CE9-4E09-A1E8-2B4DBD67A042</title>
    <desc>Created with sketchtool.</desc>
    <g id="MVP-SALIDA-Wireframes" stroke="none" stroke-width="1" fill="none" fill-rule="evenodd">
        <g id="MOVIL_FLUJO_1" transform="translate(-24.000000, -902.000000)" fill="#B2B2B2" fill-rule="nonzero">
            <g id="CLAVE-Copy" transform="translate(9.000000, 879.000000)">
                <g id="cellphone" transform="translate(15.000000, 23.000000)">
                    <path d="M9.99368687,20 C9.99368687,20 11.8090657,20 11.8090657,18.1818939 L11.8090657,1.81810606 C11.8090657,0 9.99368687,0 9.99368687,0 L1.82449495,0 C1.82449495,0 0.00911616162,0 0.00911616162,1.81810606 L0.00911616162,18.1818939 C0.00911616162,20 1.82449495,20 1.82449495,20 L9.99368687,20 Z M5.90909091,19.2429798 C5.40805556,19.2429798 5.00141414,18.8363131 5.00141414,18.335303 C5.00141414,17.8342424 5.40805556,17.4276263 5.90909091,17.4276263 C6.41012626,17.4276263 6.81679293,17.8342677 6.81679293,18.335303 C6.81679293,18.8363384 6.41015152,19.2429798 5.90909091,19.2429798 Z M3.63987374,1.10828283 C3.63987374,0.995732323 3.72974747,0.907676768 3.8404798,0.907676768 L7.97684343,0.907676768 C8.08757576,0.907676768 8.17833333,0.997550505 8.17833333,1.10828283 L8.17833333,1.16184343 C8.17833333,1.27530303 8.0884596,1.36244949 7.97775253,1.36244949 L3.8404798,1.36244949 C3.73065657,1.36244949 3.63987374,1.27257576 3.63987374,1.16184343 L3.63987374,1.10828283 Z M0.916818182,2.26921717 L10.9013889,2.26921717 L10.9013889,16.7922222 L0.916818182,16.7922222 L0.916818182,2.26921717 Z" id="Shape"></path>
                </g>
            </g>
        </g>
    </g>
</svg>