<svg xmlns="http://www.w3.org/2000/svg" width="20" height="15" viewBox="0 0 20 15">
    <g fill="none" fill-rule="evenodd">
        <path d="M-2-5h24v24H-2z"/>
        <path fill="#B2B2B2" fill-rule="nonzero" d="M18.333 0C19.208 0 20 .792 20 1.667v11.666c0 .875-.792 1.667-1.667 1.667H1.667C.792 15 0 14.208 0 13.333V1.667C0 .792.792 0 1.667 0h16.666zm-6.666 3.333h6.666V2.5h-6.666v.833zm0 1.667h6.666v-.833h-6.666V5zm0 1.667H17.5v-.834h-5.833v.834zm-10 5v.833h10v-.833c0-1.667-3.334-2.575-5-2.575-1.667 0-5 .908-5 2.575zm5-9.167a2.5 2.5 0 1 0 0 5 2.5 2.5 0 0 0 0-5z"/>
    </g>
</svg>
