<?xml version="1.0" encoding="UTF-8"?>
<svg width="24px" height="21px" viewBox="0 0 24 21" version="1.1" xmlns="http://www.w3.org/2000/svg" xmlns:xlink="http://www.w3.org/1999/xlink">
    <!-- Generator: sketchtool 55.2 (78181) - https://sketchapp.com -->
    <title>9F727B27-F4D5-45E3-9A13-797C957F4700</title>
    <desc>Created with sketchtool.</desc>
    <g id="MVP-SALIDA-Wireframes" stroke="none" stroke-width="1" fill="none" fill-rule="evenodd">
        <g id="wizard-3_PlazoFijo" transform="translate(-239.000000, -328.000000)">
            <g id="Group-2" transform="translate(215.000000, 299.000000)">
                <g id="round-home-24px" transform="translate(21.000000, 25.000000)">
                    <polygon id="Path" points="0 0 30 0 30 30 0 30"></polygon>
                    <path d="M12.5,23.75 L12.5,17.5 L17.5,17.5 L17.5,23.75 C17.5,24.4375 18.0625,25 18.75,25 L22.5,25 C23.1875,25 23.75,24.4375 23.75,23.75 L23.75,15 L25.875,15 C26.45,15 26.725,14.2875 26.2875,13.9125 L15.8375,4.5 C15.3625,4.075 14.6375,4.075 14.1625,4.5 L3.7125,13.9125 C3.2875,14.2875 3.55,15 4.125,15 L6.25,15 L6.25,23.75 C6.25,24.4375 6.8125,25 7.5,25 L11.25,25 C11.9375,25 12.5,24.4375 12.5,23.75 Z" id="Path" fill="#B2B2B2" fill-rule="nonzero"></path>
                </g>
            </g>
        </g>
    </g>
</svg>