<svg xmlns="http://www.w3.org/2000/svg" width="28" height="20" viewBox="0 0 28 20">
    <g fill="#B2B2B2" fill-rule="nonzero" stroke="#B2B2B2" stroke-width=".5">
        <path d="M24.715 1H3.285A2.288 2.288 0 0 0 1 3.285v13.711a2.288 2.288 0 0 0 2.285 2.285h21.43A2.288 2.288 0 0 0 27 16.996V3.286A2.288 2.288 0 0 0 24.715 1zm.762 15.996c0 .42-.342.762-.762.762H3.285a.763.763 0 0 1-.762-.762V3.286c0-.42.342-.763.762-.763h21.43c.42 0 .762.342.762.762v13.711z"/>
        <path d="M10.476 9.933c.423-.49.68-1.127.68-1.824a2.796 2.796 0 0 0-2.793-2.793A2.796 2.796 0 0 0 5.57 8.11c0 .697.257 1.335.68 1.824a4.319 4.319 0 0 0-2.203 3.762v.508c0 .42.34.762.762.762h7.109c.42 0 .762-.341.762-.762v-.508c0-1.613-.89-3.021-2.204-3.762zM7.094 8.11a1.271 1.271 0 0 1 2.54 0 1.271 1.271 0 0 1-2.54 0zm-1.512 5.332a2.797 2.797 0 0 1 2.781-2.539 2.797 2.797 0 0 1 2.782 2.54H5.582zM23.191 12.426h-8.125a.762.762 0 1 0 0 1.523h8.125a.762.762 0 1 0 0-1.523zM23.191 9.379h-8.125a.762.762 0 1 0 0 1.523h8.125a.762.762 0 1 0 0-1.523zM15.066 7.855h3.047a.762.762 0 1 0 0-1.523h-3.047a.762.762 0 1 0 0 1.523z"/>
    </g>
</svg>
