<svg xmlns="http://www.w3.org/2000/svg" width="140" height="49" viewBox="0 0 140 49">
    <g fill="none" fill-rule="nonzero">
        <path fill="#818181" d="M31.485 18.22h1.11c.875 0 1.404-.459 1.404-1.335 0-.792-.563-1.346-1.413-1.346h-1.101v2.68zm0-3.251h.91c.642 0 1.128-.496 1.128-1.183 0-.552-.382-1.096-1.11-1.096h-.928v2.279zm-.625-2.545c0-.239.104-.362.381-.362h1.12c1.344 0 1.785.932 1.785 1.696 0 .8-.345 1.181-.875 1.42v.02c.85.151 1.353.742 1.353 1.705 0 1.02-.598 1.943-1.96 1.943H31.24c-.277 0-.38-.122-.38-.361v-6.061zM38.773 12.941h-.018l-1.336 3.778h2.69l-1.336-3.778zm-1.995 5.596c-.08.168-.135.31-.36.31-.19 0-.289-.123-.289-.264 0-.075.027-.187.064-.281l2.066-5.753c.08-.216.18-.487.505-.487.324 0 .424.271.504.487l2.067 5.753a.904.904 0 0 1 .063.281c0 .141-.1.263-.29.263-.224 0-.297-.14-.36-.309l-.423-1.2h-3.122l-.425 1.2zM43.614 18.415c0 .28-.129.431-.355.431-.227 0-.356-.15-.356-.431v-5.96c0-.262.159-.393.356-.393.196 0 .316.111.414.244l3.77 5.237h.018v-5.05c0-.282.13-.431.356-.431.226 0 .355.149.355.43v5.941c0 .32-.138.413-.336.413-.187 0-.266-.084-.385-.244l-3.818-5.304h-.02v5.117M54.049 13.063c0 .235-.165.358-.312.358-.291 0-.653-.74-1.801-.74-1.46 0-2.25 1.507-2.25 2.865 0 1.379.702 2.681 2.376 2.681 1.217 0 1.587-.656 1.84-.656.175 0 .292.103.292.338 0 .29-.896.937-2.17.937-2.124 0-3.1-1.517-3.1-3.3 0-1.75.976-3.484 3.02-3.484 1.17 0 2.105.674 2.105 1.001M59.535 15.454c0-1.256-.497-2.773-1.955-2.773-1.456 0-1.953 1.517-1.953 2.773 0 1.256.497 2.773 1.953 2.773 1.457 0 1.955-1.517 1.955-2.773zm-1.955-3.392c1.754 0 2.635 1.696 2.635 3.392 0 1.695-.881 3.392-2.635 3.392-1.752 0-2.634-1.697-2.634-3.392 0-1.696.881-3.392 2.634-3.392zM32.9 37.987c0 .8-.394 1.213-1.02 1.213s-1.02-.413-1.02-1.213V23.83c0-.8.394-1.215 1.02-1.215s1.02.414 1.02 1.215v6.184h7.212V23.83c0-.8.394-1.215 1.02-1.215s1.019.414 1.019 1.215v14.157c0 .8-.393 1.213-1.019 1.213-.626 0-1.02-.413-1.02-1.213v-6.231H32.9v6.23M47.211 38.123c0 .664-.355 1.077-.92 1.077-.565 0-.92-.413-.92-1.077V27.815c0-.664.355-1.077.92-1.077.565 0 .92.413.92 1.077v10.308zm-.92-15.508c.627 0 1.128.552 1.128 1.237 0 .689-.501 1.237-1.129 1.237-.627 0-1.129-.55-1.129-1.237 0-.686.502-1.237 1.13-1.237zM55.595 37.146c2.48 0 3.352-2.437 3.352-4.508 0-2.068-.872-4.506-3.352-4.506s-3.352 2.438-3.352 4.506c0 2.071.873 4.508 3.352 4.508zm-5.165-9.68c0-.666.39-1.081 1.009-1.081.62 0 1.011.415 1.011 1.08v.6h.045c.575-1.104 1.654-1.68 3.261-1.68 3.306 0 5.212 3.013 5.212 6.255s-1.906 6.254-5.212 6.254a3.988 3.988 0 0 1-3.261-1.655h-.045v5.403c0 .667-.39 1.081-1.011 1.081-.62 0-1.009-.414-1.009-1.081V27.466zM67.742 36.76c2.432 0 3.288-2.35 3.288-4.346 0-1.993-.856-4.344-3.288-4.344s-3.287 2.35-3.287 4.344c0 1.998.855 4.347 3.287 4.347zm0-10.375c3.378 0 5.269 2.905 5.269 6.03 0 3.127-1.891 6.031-5.27 6.031-3.377 0-5.268-2.904-5.268-6.031 0-3.125 1.891-6.03 5.269-6.03zM76.214 24.432c0-.656.362-1.063.937-1.063.574 0 .935.407.935 1.063v2.6h.764c.617 0 .935.317.935.86 0 .543-.318.86-.935.86h-.764v9.385c0 .655-.361 1.063-.935 1.063-.575 0-.937-.408-.937-1.063V28.75h-.763c-.617 0-.935-.316-.935-.859 0-.543.318-.86.935-.86h.763v-2.6M89.094 31.708c0-1.686-.99-3.637-3.176-3.637-2.454-.089-3.332 1.842-3.399 3.637h6.575zm-6.575 1.462c0 2.016 1.306 3.59 3.536 3.59 2.634 0 3.31-1.595 4.052-1.595.362 0 .722.31.722.865 0 .953-2.455 2.416-4.797 2.416-3.828 0-5.494-2.904-5.494-6.031 0-3.192 2.026-6.03 5.38-6.03 3.268 0 5.157 2.905 5.157 5.743 0 .687-.246 1.042-1.102 1.042h-7.454zM98.993 26.385c2.123 0 3.373.687 3.373 1.486 0 .4-.355.82-.85.82-.801 0-1.108-.62-2.523-.62-2.57 0-3.584 2.35-3.584 4.344 0 1.997 1.014 4.347 3.584 4.347 1.462 0 1.838-.665 2.5-.665.472 0 .803.288.803.82 0 .731-1.156 1.53-3.302 1.53-3.822 0-5.66-2.905-5.66-6.032-.001-3.125 1.837-6.03 5.66-6.03M109.197 36.76c2.457 0 3.32-2.35 3.32-4.346 0-1.993-.863-4.344-3.32-4.344-2.458 0-3.323 2.35-3.323 4.344 0 1.998.865 4.347 3.323 4.347zm5.212.733c0 .686-.548.953-.936.953-.409 0-.932-.267-.932-.953v-.82h-.045c-.865 1.197-2.003 1.773-3.299 1.773-3.414 0-5.326-2.904-5.326-6.031 0-3.125 1.912-6.03 5.326-6.03 1.388 0 2.366.578 3.299 1.575h.045v-.621c0-.686.524-.954.932-.954.388 0 .936.268.936.954v10.154zM116.667 27.427c0-.642.397-1.042 1.024-1.042.628 0 1.023.4 1.023 1.042v.998h.047c.464-.908 1.604-2.04 2.789-2.04.721 0 1.138.444 1.138.999 0 .553-.418.908-1.277 1.064-1.212.198-2.697 1.064-2.697 3.348v5.608c0 .642-.396 1.042-1.024 1.042-.627 0-1.023-.4-1.023-1.042v-9.977M126.996 38.123c0 .664-.356 1.077-.92 1.077-.565 0-.92-.413-.92-1.077V27.815c0-.664.355-1.077.92-1.077.564 0 .92.413.92 1.077v10.308zm-.92-15.508c.626 0 1.128.552 1.128 1.237 0 .689-.502 1.237-1.129 1.237s-1.129-.55-1.129-1.237c0-.686.502-1.237 1.13-1.237zM134.732 36.76c2.432 0 3.287-2.35 3.287-4.346 0-1.993-.855-4.344-3.287-4.344s-3.287 2.35-3.287 4.344c0 1.998.855 4.347 3.287 4.347zm0-10.375c3.376 0 5.268 2.905 5.268 6.03 0 3.127-1.892 6.031-5.268 6.031-3.377 0-5.27-2.904-5.27-6.031 0-3.125 1.893-6.03 5.27-6.03z"/>
        <path fill="#F37320" d="M0 0v35.43l3.83-2.216 3.62-2.097 4.066-2.354.052-.024c.06-.032.12-.056.179-.081.051-.02.104-.043.156-.057.058-.017.113-.028.17-.04.059-.011.117-.022.174-.03.058-.006.115-.004.173-.004.059 0 .115-.002.172.004.06.008.116.019.173.03.06.012.116.022.172.04.053.015.103.037.156.057.06.025.12.05.178.081l.054.024 4.066 2.354 3.62 2.097 3.828 2.215V0H0"/>
        <path fill="#F37320" d="M17.39 34.933l-4.07-2.284-.014-.011a1.866 1.866 0 0 0-1.788.011l-4.069 2.284-3.619 2.03L0 39.112V49h24.839v-9.889l-3.829-2.149-3.62-2.03"/>
        <path d="M24.839 39.198l-3.829-2.26-3.62-2.134-4.07-2.401-.014-.012a1.786 1.786 0 0 0-1.788.012l-4.069 2.401L3.83 36.94 0 39.2v-4.272l3.83-2.26 3.62-2.136 4.066-2.398.051-.025c.06-.033.12-.058.18-.083.051-.02.103-.044.156-.058.057-.018.112-.028.17-.042.058-.01.116-.021.174-.029.058-.006.114-.005.173-.005.058 0 .114-.001.172.005.059.008.116.019.173.03.059.013.116.023.172.04.053.016.102.038.155.059.06.025.121.05.179.083l.053.025 4.066 2.398 3.62 2.137 3.828 2.257v4.272"/>
    </g>
</svg>
