<svg xmlns="http://www.w3.org/2000/svg" width="26" height="31" viewBox="0 0 26 31">
    <g fill="#000" fill-rule="evenodd">
        <path d="M14.015 19.33h-1.723a1.131 1.131 0 0 1-1.134-1.13c0-.623.508-1.128 1.134-1.128h3.032a.752.752 0 0 0 .752-.749.752.752 0 0 0-.752-.748h-1.422v-1.042a.752.752 0 0 0-1.503 0v1.042h-.107A2.636 2.636 0 0 0 9.654 18.2a2.636 2.636 0 0 0 2.638 2.625h1.723c.626 0 1.134.506 1.134 1.13 0 .623-.508 1.128-1.134 1.128h-3.089a.752.752 0 0 0-.752.749c0 .411.339.748.752.748h1.479v1.067a.752.752 0 0 0 1.503 0V24.58h.145a2.632 2.632 0 0 0 2.6-2.626 2.636 2.636 0 0 0-2.638-2.625z"/>
        <path fill-rule="nonzero" d="M24.453 17.633c-.79-1.809-1.88-3.561-3.258-5.202-1.667-1.995-3.327-3.33-4.173-3.948l3.195-5.9a.736.736 0 0 0-.137-.885C19.253.893 18.375.5 17.398.5c-.896 0-1.717.337-2.43.636-.565.23-1.097.455-1.53.455a.956.956 0 0 1-.357-.062C11.591.986 10.444.65 9.335.65c-1.403 0-2.6.562-3.772 1.76a.75.75 0 0 0-.087.935L8.92 8.527a24.633 24.633 0 0 0-4.116 3.904c-1.372 1.64-2.468 3.393-3.258 5.202-.99 2.277-1.49 4.653-1.49 7.06 0 3.2 2.618 5.807 5.832 5.807h14.222c3.214 0 5.833-2.607 5.833-5.807 0-2.407-.502-4.783-1.491-7.06zM7.08 3.033c.726-.624 1.422-.899 2.255-.899.89 0 1.892.3 3.226.792.276.1.57.15.871.15.733 0 1.435-.287 2.105-.568.646-.268 1.26-.524 1.855-.524.288 0 .695.05 1.209.412l-3.007 5.563h-5.238L7.08 3.032zm13.03 25.97H5.89c-2.388 0-4.33-1.933-4.33-4.31 0-3.998 1.472-7.79 4.367-11.27a22.96 22.96 0 0 1 4.254-3.967h5.626c.57.393 2.424 1.765 4.254 3.967 2.9 3.48 4.366 7.266 4.366 11.27.013 2.377-1.93 4.31-4.316 4.31z"/>
    </g>
</svg>
