<svg xmlns="http://www.w3.org/2000/svg" width="26" height="23" viewBox="0 0 26 23">
    <g fill="none" fill-rule="evenodd">
        <path d="M-2-3h30v30H-2z"/>
        <path fill="#B2B2B2" fill-rule="nonzero" d="M22.575 1.987C19.275-.263 15.2.787 13 3.362 10.8.787 6.725-.275 3.425 1.987 1.675 3.188.575 5.213.5 7.35c-.175 4.85 4.125 8.737 10.688 14.7l.124.113c.95.862 2.413.862 3.363-.013l.137-.125c6.563-5.95 10.85-9.837 10.688-14.687-.075-2.125-1.175-4.15-2.925-5.35zm-9.45 18.2l-.125.125-.125-.125C6.925 14.8 3 11.238 3 7.626c0-2.5 1.875-4.375 4.375-4.375 1.925 0 3.8 1.237 4.463 2.95h2.337c.65-1.713 2.525-2.95 4.45-2.95 2.5 0 4.375 1.875 4.375 4.375 0 3.613-3.925 7.175-9.875 12.563z"/>
    </g>
</svg>
