<svg xmlns="http://www.w3.org/2000/svg" width="24" height="23" viewBox="0 0 24 23">
    <g fill="none" fill-rule="evenodd">
        <path d="M-2-2h28v28H-2z"/>
        <path fill="#B2B2B2" fill-rule="nonzero" d="M14.333 5V2.667H9.667V5h4.666zM2.667 8.5V19a1.17 1.17 0 0 0 1.166 1.167h16.334A1.17 1.17 0 0 0 21.333 19V8.5a1.17 1.17 0 0 0-1.166-1.167H3.833A1.17 1.17 0 0 0 2.667 8.5zM21.333 5a2.325 2.325 0 0 1 2.334 2.333v12.834a2.325 2.325 0 0 1-2.334 2.333H2.667a2.325 2.325 0 0 1-2.334-2.333L.345 7.333A2.315 2.315 0 0 1 2.667 5h4.666V2.667A2.325 2.325 0 0 1 9.667.333h4.666a2.325 2.325 0 0 1 2.334 2.334V5h4.666z"/>
    </g>
</svg>
