<svg xmlns="http://www.w3.org/2000/svg" width="24" height="24" viewBox="0 0 24 24">
    <path fill="#B2B2B2" fill-rule="nonzero" d="M1.2 4.8C.54 4.8 0 5.34 0 6v15.6C0 22.92 1.08 24 2.4 24H18c.66 0 1.2-.54 1.2-1.2 0-.66-.54-1.2-1.2-1.2H3.6c-.66 0-1.2-.54-1.2-1.2V6c0-.66-.54-1.2-1.2-1.2zM21.6 0H7.2C5.88 0 4.8 1.08 4.8 2.4v14.4c0 1.32 1.08 2.4 2.4 2.4h14.4c1.32 0 2.4-1.08 2.4-2.4V2.4C24 1.08 22.92 0 21.6 0zm-2.4 10.8H9.6c-.66 0-1.2-.54-1.2-1.2 0-.66.54-1.2 1.2-1.2h9.6c.66 0 1.2.54 1.2 1.2 0 .66-.54 1.2-1.2 1.2zm-4.8 4.8H9.6c-.66 0-1.2-.54-1.2-1.2 0-.66.54-1.2 1.2-1.2h4.8c.66 0 1.2.54 1.2 1.2 0 .66-.54 1.2-1.2 1.2zM19.2 6H9.6c-.66 0-1.2-.54-1.2-1.2 0-.66.54-1.2 1.2-1.2h9.6c.66 0 1.2.54 1.2 1.2 0 .66-.54 1.2-1.2 1.2z"/>
</svg>
