<svg xmlns="http://www.w3.org/2000/svg" width="24" height="26" viewBox="0 0 24 26">
    <g fill="none" fill-rule="evenodd">
        <path d="M-3-2h30v30H-3z"/>
        <path fill="#B2B2B2" fill-rule="nonzero" d="M20.75 3H19.5V1.75c0-.688-.563-1.25-1.25-1.25-.688 0-1.25.563-1.25 1.25V3H7V1.75C7 1.062 6.437.5 5.75.5c-.688 0-1.25.563-1.25 1.25V3H3.25A2.489 2.489 0 0 0 .763 5.5L.75 23a2.5 2.5 0 0 0 2.5 2.5h17.5c1.375 0 2.5-1.125 2.5-2.5V5.5c0-1.375-1.125-2.5-2.5-2.5zm0 18.75c0 .688-.563 1.25-1.25 1.25h-15c-.688 0-1.25-.563-1.25-1.25V9.25h17.5v12.5zm-15-10h2.5v2.5h-2.5v-2.5zm5 0h2.5v2.5h-2.5v-2.5zm5 0h2.5v2.5h-2.5v-2.5z"/>
    </g>
</svg>
