<svg xmlns="http://www.w3.org/2000/svg" width="24" height="24" viewBox="0 0 24 24">
    <g fill="none" fill-rule="evenodd">
        <path d="M-2-2h28v28H-2z"/>
        <path fill="#B2B2B2" fill-rule="nonzero" d="M12 .333C5.56.333.333 5.56.333 12 .333 18.44 5.56 23.667 12 23.667c6.44 0 11.667-5.227 11.667-11.667C23.667 5.56 18.44.333 12 .333zm0 3.5c1.937 0 3.5 1.564 3.5 3.5 0 1.937-1.563 3.5-3.5 3.5a3.495 3.495 0 0 1-3.5-3.5c0-1.936 1.563-3.5 3.5-3.5zM12 20.4a8.4 8.4 0 0 1-7-3.757c.035-2.321 4.667-3.593 7-3.593 2.322 0 6.965 1.272 7 3.593a8.4 8.4 0 0 1-7 3.757z"/>
    </g>
</svg>
