<svg xmlns="http://www.w3.org/2000/svg" width="19" height="22" viewBox="0 0 19 22">
    <path fill="#B2B2B2" fill-rule="nonzero" d="M1.65 20.9v-7.15H1.1c-.605 0-1.1-.495-1.1-1.1V7.7c0-1.21.99-2.2 2.2-2.2h3.3c1.21 0 2.2.99 2.2 2.2v4.95c0 .605-.495 1.1-1.1 1.1h-.55v7.15c0 .605-.495 1.1-1.1 1.1h-2.2c-.605 0-1.1-.495-1.1-1.1zm13.75 0v-5.5h1.771c.748 0 1.276-.737 1.045-1.452l-2.31-6.941a2.21 2.21 0 0 0-2.09-1.507h-.132a2.2 2.2 0 0 0-2.09 1.507l-2.31 6.941a1.098 1.098 0 0 0 1.045 1.452H12.1v5.5c0 .605.495 1.1 1.1 1.1h1.1c.605 0 1.1-.495 1.1-1.1zM3.85 4.4c1.221 0 2.2-.979 2.2-2.2S5.071 0 3.85 0s-2.2.979-2.2 2.2.979 2.2 2.2 2.2zm9.9 0c1.221 0 2.2-.979 2.2-2.2S14.971 0 13.75 0s-2.2.979-2.2 2.2.979 2.2 2.2 2.2z"/>
</svg>
