<?xml version="1.0" encoding="UTF-8"?>
<svg width="20px" height="20px" viewBox="0 0 20 20" version="1.1" xmlns="http://www.w3.org/2000/svg" xmlns:xlink="http://www.w3.org/1999/xlink">
    <!-- Generator: sketchtool 55.2 (78181) - https://sketchapp.com -->
    <title>09F5F37F-3106-4D0A-8B61-3FC7AAB908D9</title>
    <desc>Created with sketchtool.</desc>
    <g id="MVP-SALIDA-Wireframes" stroke="none" stroke-width="1" fill="none" fill-rule="evenodd">
        <g id="MOVIL_FLUJO_1" transform="translate(-20.000000, -619.000000)" fill="#B2B2B2" fill-rule="nonzero">
            <path d="M21,623 C20.45,623 20,623.45 20,624 L20,637 C20,638.1 20.9,639 22,639 L35,639 C35.55,639 36,638.55 36,638 C36,637.45 35.55,637 35,637 L23,637 C22.45,637 22,636.55 22,636 L22,624 C22,623.45 21.55,623 21,623 Z M38,619 L26,619 C24.9,619 24,619.9 24,621 L24,633 C24,634.1 24.9,635 26,635 L38,635 C39.1,635 40,634.1 40,633 L40,621 C40,619.9 39.1,619 38,619 Z M36,628 L28,628 C27.45,628 27,627.55 27,627 C27,626.45 27.45,626 28,626 L36,626 C36.55,626 37,626.45 37,627 C37,627.55 36.55,628 36,628 Z M32,632 L28,632 C27.45,632 27,631.55 27,631 C27,630.45 27.45,630 28,630 L32,630 C32.55,630 33,630.45 33,631 C33,631.55 32.55,632 32,632 Z M36,624 L28,624 C27.45,624 27,623.55 27,623 C27,622.45 27.45,622 28,622 L36,622 C36.55,622 37,622.45 37,623 C37,623.55 36.55,624 36,624 Z" id="Shape"></path>
        </g>
    </g>
</svg>