<?xml version="1.0" encoding="UTF-8"?>
<svg width="24px" height="23px" viewBox="0 0 24 23" version="1.1" xmlns="http://www.w3.org/2000/svg" xmlns:xlink="http://www.w3.org/1999/xlink">
    <!-- Generator: sketchtool 55.2 (78181) - https://sketchapp.com -->
    <title>A2AB1AF2-0623-42EA-A365-AB7AE873DE76</title>
    <desc>Created with sketchtool.</desc>
    <g id="MVP-SALIDA-Wireframes" stroke="none" stroke-width="1" fill="none" fill-rule="evenodd">
        <g id="wizard-2_PlazoFijo" transform="translate(-741.000000, -394.000000)">
            <g id="round-work_outline-24px" transform="translate(739.000000, 392.000000)">
                <polygon id="Path" points="0 0 28 0 28 28 0 28"></polygon>
                <path d="M16.3333333,7 L16.3333333,4.66666667 L11.6666667,4.66666667 L11.6666667,7 L16.3333333,7 Z M4.66666667,10.5 L4.66666667,21 C4.66666667,21.6416667 5.19166667,22.1666667 5.83333333,22.1666667 L22.1666667,22.1666667 C22.8083333,22.1666667 23.3333333,21.6416667 23.3333333,21 L23.3333333,10.5 C23.3333333,9.85833333 22.8083333,9.33333333 22.1666667,9.33333333 L5.83333333,9.33333333 C5.19166667,9.33333333 4.66666667,9.85833333 4.66666667,10.5 Z M23.3333333,7 C24.6283333,7 25.6666667,8.03833333 25.6666667,9.33333333 L25.6666667,22.1666667 C25.6666667,23.4616667 24.6283333,24.5 23.3333333,24.5 L4.66666667,24.5 C3.37166667,24.5 2.33333333,23.4616667 2.33333333,22.1666667 L2.345,9.33333333 C2.345,8.03833333 3.37166667,7 4.66666667,7 L9.33333333,7 L9.33333333,4.66666667 C9.33333333,3.37166667 10.3716667,2.33333333 11.6666667,2.33333333 L16.3333333,2.33333333 C17.6283333,2.33333333 18.6666667,3.37166667 18.6666667,4.66666667 L18.6666667,7 L23.3333333,7 Z" id="Shape" fill="#B2B2B2" fill-rule="nonzero"></path>
            </g>
        </g>
    </g>
</svg>