<?xml version="1.0" encoding="UTF-8"?>
<svg width="26px" height="26px" viewBox="0 0 26 26" version="1.1" xmlns="http://www.w3.org/2000/svg" xmlns:xlink="http://www.w3.org/1999/xlink">
    <!-- Generator: sketchtool 55.2 (78181) - https://sketchapp.com -->
    <title>C81D37E9-820F-4F91-A8D5-EC5272A92402</title>
    <desc>Created with sketchtool.</desc>
    <g id="MVP-SALIDA-Wireframes" stroke="none" stroke-width="1" fill="none" fill-rule="evenodd">
        <g id="wizard-2_PlazoFijo" transform="translate(-239.000000, -300.000000)" fill="#B2B2B2" fill-rule="nonzero">
            <g id="round-public-24px" transform="translate(239.000000, 300.000000)">
                <path d="M13,0.5 C6.1,0.5 0.5,6.1 0.5,13 C0.5,19.9 6.1,25.5 13,25.5 C19.9,25.5 25.5,19.9 25.5,13 C25.5,6.1 19.9,0.5 13,0.5 Z M11.75,22.9125 C6.8125,22.3 3,18.1 3,13 C3,12.225 3.1,11.4875 3.2625,10.7625 L9.25,16.75 L9.25,18 C9.25,19.375 10.375,20.5 11.75,20.5 L11.75,22.9125 Z M20.375,19.7375 C20.05,18.725 19.125,18 18,18 L16.75,18 L16.75,14.25 C16.75,13.5625 16.1875,13 15.5,13 L8,13 L8,10.5 L10.5,10.5 C11.1875,10.5 11.75,9.9375 11.75,9.25 L11.75,6.75 L14.25,6.75 C15.625,6.75 16.75,5.625 16.75,4.25 L16.75,3.7375 C20.4125,5.225 23,8.8125 23,13 C23,15.6 22,17.9625 20.375,19.7375 Z" id="Shape"></path>
            </g>
        </g>
    </g>
</svg>